REM DIRINDEX 1\2\3,1\2\4,1\2\5,1\2\6
REM DIRNAME cjc157,folder01,folder02,folder03,folder04,folder05
TITLE ""
FILE "075 075.mp3" MP3
  TRACK 01 AUDIO
    TITLE "0:"
    INDEX 01 00:00:00
  TRACK 02 AUDIO
    TITLE "3:cjc157_2809"
    INDEX 01 00:00:11
  TRACK 03 AUDIO
    TITLE "0:"
    INDEX 01 00:01:11
  TRACK 04 AUDIO
    TITLE "4:cjc157_2810"
    INDEX 01 00:01:58
  TRACK 05 AUDIO
    TITLE "0:"
    INDEX 01 00:03:08
  TRACK 06 AUDIO
    TITLE "5:cjc157_2811"
    INDEX 01 00:03:63
  TRACK 07 AUDIO
    TITLE "0:"
    INDEX 01 00:06:20
  TRACK 08 AUDIO
    TITLE "5:cjc157_2812"
    INDEX 01 00:06:71
  TRACK 09 AUDIO
    TITLE "0:"
    INDEX 01 00:08:73
  TRACK 10 AUDIO
    TITLE "3:cjc157_2813"
    INDEX 01 00:09:47
  TRACK 11 AUDIO
    TITLE "0:"
    INDEX 01 00:10:68
  TRACK 12 AUDIO
    TITLE "4:cjc157_2814"
    INDEX 01 00:11:39
  TRACK 13 AUDIO
    TITLE "0:"
    INDEX 01 00:12:65
  TRACK 14 AUDIO
    TITLE "5:cjc157_2815"
    INDEX 01 00:13:35
  TRACK 15 AUDIO
    TITLE "0:"
    INDEX 01 00:15:64
  TRACK 16 AUDIO
    TITLE "5:cjc157_2816"
    INDEX 01 00:16:34
  TRACK 17 AUDIO
    TITLE "0:"
    INDEX 01 00:18:74
  TRACK 18 AUDIO
    TITLE "3:cjc157_2817"
    INDEX 01 00:19:40
  TRACK 19 AUDIO
    TITLE "0:"
    INDEX 01 00:20:49
  TRACK 20 AUDIO
    TITLE "4:cjc157_2818"
    INDEX 01 00:21:19
  TRACK 21 AUDIO
    TITLE "0:"
    INDEX 01 00:22:30
  TRACK 22 AUDIO
    TITLE "5:cjc157_2819"
    INDEX 01 00:23:03
  TRACK 23 AUDIO
    TITLE "0:"
    INDEX 01 00:25:27
  TRACK 24 AUDIO
    TITLE "5:cjc157_2820"
    INDEX 01 00:25:72
  TRACK 25 AUDIO
    TITLE "0:"
    INDEX 01 00:28:59
  TRACK 26 AUDIO
    TITLE "3:cjc157_2821"
    INDEX 01 00:29:33
  TRACK 27 AUDIO
    TITLE "0:"
    INDEX 01 00:30:26
  TRACK 28 AUDIO
    TITLE "4:cjc157_2822"
    INDEX 01 00:31:02
  TRACK 29 AUDIO
    TITLE "0:"
    INDEX 01 00:32:19
  TRACK 30 AUDIO
    TITLE "5:cjc157_2823"
    INDEX 01 00:32:58
  TRACK 31 AUDIO
    TITLE "0:"
    INDEX 01 00:35:00
  TRACK 32 AUDIO
    TITLE "5:cjc157_2824"
    INDEX 01 00:35:47
  TRACK 33 AUDIO
    TITLE "0:"
    INDEX 01 00:37:40
  TRACK 34 AUDIO
    TITLE "3:cjc157_2825"
    INDEX 01 00:38:14
  TRACK 35 AUDIO
    TITLE "0:"
    INDEX 01 00:39:51
  TRACK 36 AUDIO
    TITLE "4:cjc157_2826"
    INDEX 01 00:40:23
  TRACK 37 AUDIO
    TITLE "0:"
    INDEX 01 00:41:55
  TRACK 38 AUDIO
    TITLE "5:cjc157_2827"
    INDEX 01 00:42:27
  TRACK 39 AUDIO
    TITLE "0:"
    INDEX 01 00:45:02
  TRACK 40 AUDIO
    TITLE "3:cjc157_2828"
    INDEX 01 00:45:47
  TRACK 41 AUDIO
    TITLE "0:"
    INDEX 01 00:46:51
  TRACK 42 AUDIO
    TITLE "4:cjc157_2829"
    INDEX 01 00:47:21
  TRACK 43 AUDIO
    TITLE "0:"
    INDEX 01 00:48:32
  TRACK 44 AUDIO
    TITLE "5:cjc157_2830"
    INDEX 01 00:49:04
  TRACK 45 AUDIO
    TITLE "0:"
    INDEX 01 00:52:63
  TRACK 46 AUDIO
    TITLE "5:cjc157_2831"
    INDEX 01 00:53:37
  TRACK 47 AUDIO
    TITLE "0:"
    INDEX 01 00:54:58
  TRACK 48 AUDIO
    TITLE "3:cjc157_2832"
    INDEX 01 00:55:26
  TRACK 49 AUDIO
    TITLE "0:"
    INDEX 01 00:56:43
  TRACK 50 AUDIO
    TITLE "4:cjc157_2833"
    INDEX 01 00:57:11
  TRACK 51 AUDIO
    TITLE "0:"
    INDEX 01 00:58:40
  TRACK 52 AUDIO
    TITLE "5:cjc157_2834"
    INDEX 01 00:59:12
  TRACK 53 AUDIO
    TITLE "0:"
    INDEX 01 01:02:14
  TRACK 54 AUDIO
    TITLE "3:cjc157_2835"
    INDEX 01 01:02:63
  TRACK 55 AUDIO
    TITLE "0:"
    INDEX 01 01:03:71
  TRACK 56 AUDIO
    TITLE "4:cjc157_2836"
    INDEX 01 01:04:43
  TRACK 57 AUDIO
    TITLE "0:"
    INDEX 01 01:05:62
  TRACK 58 AUDIO
    TITLE "5:cjc157_2837"
    INDEX 01 01:06:32
  TRACK 59 AUDIO
    TITLE "0:"
    INDEX 01 01:08:54
  TRACK 60 AUDIO
    TITLE "3:cjc157_2838"
    INDEX 01 01:09:24
  TRACK 61 AUDIO
    TITLE "0:"
    INDEX 01 01:10:33
  TRACK 62 AUDIO
    TITLE "4:cjc157_2839"
    INDEX 01 01:11:07
  TRACK 63 AUDIO
    TITLE "0:"
    INDEX 01 01:12:24
  TRACK 64 AUDIO
    TITLE "5:cjc157_2840"
    INDEX 01 01:12:70
  TRACK 65 AUDIO
    TITLE "0:"
    INDEX 01 01:16:05
  TRACK 66 AUDIO
    TITLE "5:cjc157_2841"
    INDEX 01 01:16:52
  TRACK 67 AUDIO
    TITLE "0:"
    INDEX 01 01:18:62
  TRACK 68 AUDIO
    TITLE "3:cjc157_2842"
    INDEX 01 01:19:34
  TRACK 69 AUDIO
    TITLE "0:"
    INDEX 01 01:20:42
  TRACK 70 AUDIO
    TITLE "4:cjc157_2843"
    INDEX 01 01:21:14
  TRACK 71 AUDIO
    TITLE "0:"
    INDEX 01 01:22:27
  TRACK 72 AUDIO
    TITLE "5:cjc157_2844"
    INDEX 01 01:23:07
  TRACK 73 AUDIO
    TITLE "0:"
    INDEX 01 01:25:09
  TRACK 74 AUDIO
    TITLE "5:cjc157_2845"
    INDEX 01 01:25:57
  TRACK 75 AUDIO
    TITLE "0:"
    INDEX 01 01:27:42
  TRACK 76 AUDIO
    TITLE "5:cjc157_2846"
    INDEX 01 01:28:10
  TRACK 77 AUDIO
    TITLE "0:"
    INDEX 01 01:29:74
